<svg width="108" height="22" viewBox="0 0 108 22" fill="none" xmlns="http://www.w3.org/2000/svg">
<path fill-rule="evenodd" clip-rule="evenodd" d="M34.365 6.53307C34.365 5.90002 33.8875 5.38684 33.2984 5.38684H32.2317C31.6426 5.38684 31.165 5.90002 31.165 6.53307V16.467C31.165 17.1001 31.6426 17.6133 32.2317 17.6133H33.2984C33.8875 17.6133 34.365 17.1001 34.365 16.467V6.53307ZM26.9309 7.83212H27.9976C28.5867 7.83212 29.0643 8.35762 29.0643 9.00586V16.4395C29.0643 17.0878 28.5867 17.6133 27.9976 17.6133H26.9309C26.3418 17.6133 25.8643 17.0878 25.8643 16.4395V9.00586C25.8643 8.35762 26.3418 7.83212 26.9309 7.83212ZM22.5992 10.4812H21.5325C20.9434 10.4812 20.4658 11.0134 20.4658 11.6698V16.4246C20.4658 17.0811 20.9434 17.6132 21.5325 17.6132H22.5992C23.1883 17.6132 23.6658 17.0811 23.6658 16.4246V11.6698C23.6658 11.0134 23.1883 10.4812 22.5992 10.4812ZM17.2984 12.9265H16.2317C15.6426 12.9265 15.165 13.4511 15.165 14.0982V16.4416C15.165 17.0887 15.6426 17.6133 16.2317 17.6133H17.2984C17.8875 17.6133 18.365 17.0887 18.365 16.4416V14.0982C18.365 13.4511 17.8875 12.9265 17.2984 12.9265Z" fill="white"/>
<path fill-rule="evenodd" clip-rule="evenodd" d="M49.9365 7.8021C52.4236 7.8022 54.8157 8.72428 56.6182 10.3778C56.7539 10.5054 56.9709 10.5038 57.1045 10.3742L58.402 9.11069C58.4697 9.04493 58.5075 8.95585 58.5069 8.86317C58.5063 8.77049 58.4675 8.68184 58.399 8.61685C53.668 4.24214 46.2043 4.24214 41.4733 8.61685C41.4048 8.6818 41.3659 8.77041 41.3652 8.8631C41.3646 8.95578 41.4023 9.04488 41.4699 9.11069L42.7678 10.3742C42.9014 10.504 43.1185 10.5056 43.2542 10.3778C45.0569 8.72418 47.4492 7.80209 49.9365 7.8021ZM49.9332 12.0224C51.2905 12.0223 52.5994 12.534 53.6055 13.4582C53.7416 13.5893 53.9559 13.5865 54.0886 13.4517L55.3759 12.1324C55.4437 12.0632 55.4813 11.9694 55.4803 11.8718C55.4793 11.7743 55.4398 11.6812 55.3707 11.6134C52.3068 8.72254 47.5621 8.72254 44.4983 11.6134C44.4291 11.6812 44.3896 11.7743 44.3887 11.8719C44.3878 11.9695 44.4255 12.0633 44.4935 12.1324L45.7804 13.4517C45.913 13.5865 46.1274 13.5893 46.2635 13.4582C47.2689 12.5346 48.5768 12.0229 49.9332 12.0224ZM52.4576 14.8159C52.4595 14.9213 52.4225 15.0228 52.3552 15.0967L50.1785 17.5514C50.1147 17.6235 50.0277 17.6641 49.9369 17.6641C49.8462 17.6641 49.7592 17.6235 49.6954 17.5514L47.5183 15.0967C47.4511 15.0228 47.4141 14.9212 47.4161 14.8158C47.4181 14.7105 47.4589 14.6107 47.5289 14.5401C48.919 13.2262 50.9549 13.2262 52.345 14.5401C52.4149 14.6108 52.4557 14.7106 52.4576 14.8159Z" fill="white"/>
<rect opacity="0.35" x="66.0068" y="5.5" width="24" height="12" rx="3.8" stroke="white"/>
<path opacity="0.4" d="M91.5068 9.78113V13.8566C92.3116 13.5114 92.8349 12.7085 92.8349 11.8189C92.8349 10.9293 92.3116 10.1263 91.5068 9.78113" fill="white"/>
<rect x="67.5068" y="7" width="21" height="9" rx="2.5" fill="white"/>
</svg>
